<mxfile host="app.diagrams.net" modified="2024-03-21T10:17:19.218Z" agent="Mozilla/5.0 (Windows NT 10.0; Win64; x64; rv:123.0) Gecko/20100101 Firefox/123.0" version="24.0.7" etag="JfqY9gxL1p_Y8JREiii3" type="github">
  <diagram name="Side-1" id="5b4RTjjhyfOfnpRdoECo">
    <mxGraphModel>
      <root>
        <mxCell id="0" />
        <mxCell id="1" parent="0" />
      </root>
    </mxGraphModel>
  </diagram>
</mxfile>
